<svg id="visual" viewBox="0 0 1920 1080" width="1920" height="1080" xmlns="http://www.w3.org/2000/svg" xmlns:xlink="http://www.w3.org/1999/xlink" version="1.1"><rect x="0" y="0" width="1920" height="1080" fill="#660425"></rect><path d="M0 139L45.7 157.5C91.3 176 182.7 213 274.2 226.3C365.7 239.7 457.3 229.3 548.8 242.2C640.3 255 731.7 291 823 289.5C914.3 288 1005.7 249 1097 230.5C1188.3 212 1279.7 214 1371.2 245.8C1462.7 277.7 1554.3 339.3 1645.8 352C1737.3 364.7 1828.7 328.3 1874.3 310.2L1920 292L1920 0L1874.3 0C1828.7 0 1737.3 0 1645.8 0C1554.3 0 1462.7 0 1371.2 0C1279.7 0 1188.3 0 1097 0C1005.7 0 914.3 0 823 0C731.7 0 640.3 0 548.8 0C457.3 0 365.7 0 274.2 0C182.7 0 91.3 0 45.7 0L0 0Z" fill="#d3d3d3" stroke-linecap="round" stroke-linejoin="miter"></path></svg>